<svg width="55" height="63" viewBox="0 0 55 63" fill="none" xmlns="http://www.w3.org/2000/svg">
<path fill-rule="evenodd" clip-rule="evenodd" d="M0 7.56702C0 5.56012 0.804809 3.63542 2.23738 2.21633C3.66995 0.797238 5.61293 0 7.63889 0H45.8333C48.2645 0 50.5961 0.956685 52.3151 2.6596C54.0342 4.36251 55 6.67215 55 9.08043V51.4558C55.0002 51.9943 54.8552 52.5232 54.5802 52.9877C54.3052 53.4523 53.91 53.8358 53.4355 54.0986C52.9609 54.3614 52.4242 54.494 51.8806 54.4828C51.3371 54.4715 50.8064 54.3168 50.3433 54.0346L42.0139 48.9556L33.6844 54.0346C33.2029 54.328 32.6487 54.4834 32.0833 54.4834C31.518 54.4834 30.9637 54.328 30.4822 54.0346L22.1528 48.9556L13.8233 54.0346C13.3603 54.3168 12.8296 54.4715 12.286 54.4828C11.7425 54.494 11.2057 54.3614 10.7312 54.0986C10.2566 53.8358 9.86146 53.4523 9.58644 52.9877C9.31142 52.5232 9.16651 51.9943 9.16667 51.4558V33.2949H3.05556C2.24517 33.2949 1.46798 32.976 0.894951 32.4084C0.321924 31.8407 0 31.0708 0 30.2681V7.56702ZM15.2778 46.0378L20.5517 42.8233C21.0332 42.5298 21.5874 42.3745 22.1528 42.3745C22.7181 42.3745 23.2724 42.5298 23.7539 42.8233L32.0833 47.9023L40.4128 42.8233C40.8943 42.5298 41.4485 42.3745 42.0139 42.3745C42.5792 42.3745 43.1335 42.5298 43.615 42.8233L48.8889 46.0378V9.08043C48.8889 8.27767 48.567 7.50779 47.9939 6.94015C47.4209 6.37251 46.6437 6.05362 45.8333 6.05362H15.125C15.2269 6.54396 15.2778 7.04843 15.2778 7.56702V46.0378ZM7.63889 6.05362C7.2337 6.05362 6.8451 6.21307 6.55859 6.49688C6.27207 6.7807 6.11111 7.16564 6.11111 7.56702V27.2413H9.16667V7.56702C9.16667 7.16564 9.0057 6.7807 8.71919 6.49688C8.43268 6.21307 8.04408 6.05362 7.63889 6.05362ZM21.3889 18.1609C21.3889 17.3581 21.7108 16.5882 22.2838 16.0206C22.8569 15.4529 23.6341 15.134 24.4444 15.134H39.7222C40.5326 15.134 41.3098 15.4529 41.8828 16.0206C42.4559 16.5882 42.7778 17.3581 42.7778 18.1609C42.7778 18.9636 42.4559 19.7335 41.8828 20.3011C41.3098 20.8688 40.5326 21.1877 39.7222 21.1877H24.4444C23.6341 21.1877 22.8569 20.8688 22.2838 20.3011C21.7108 19.7335 21.3889 18.9636 21.3889 18.1609ZM21.3889 30.2681C21.3889 29.4653 21.7108 28.6954 22.2838 28.1278C22.8569 27.5602 23.6341 27.2413 24.4444 27.2413H36.6667C37.4771 27.2413 38.2542 27.5602 38.8273 28.1278C39.4003 28.6954 39.7222 29.4653 39.7222 30.2681C39.7222 31.0708 39.4003 31.8407 38.8273 32.4084C38.2542 32.976 37.4771 33.2949 36.6667 33.2949H24.4444C23.6341 33.2949 22.8569 32.976 22.2838 32.4084C21.7108 31.8407 21.3889 31.0708 21.3889 30.2681Z" fill="black"/>
</svg>
