<svg width="42" height="42" viewBox="0 0 42 42" fill="none" xmlns="http://www.w3.org/2000/svg">
<path fill-rule="evenodd" clip-rule="evenodd" d="M13.1549 2.125C13.7499 0.87125 15.0313 0 16.5167 0H25.0167C26.4999 0 27.7813 0.87125 28.3784 2.125C29.8298 2.13775 30.9624 2.20363 31.9739 2.59888C33.1814 3.0712 34.2316 3.8739 35.0042 4.91513C35.7841 5.96275 36.1496 7.31 36.6532 9.16087L36.7318 9.44988L37.9856 14.0548C38.8215 14.4765 39.5543 15.0773 40.1318 15.8143C41.4536 17.5079 41.6873 19.5245 41.4536 21.8365C41.2241 24.0805 40.5186 26.9067 39.6346 30.4449L39.5772 30.668C39.0183 32.9056 38.5636 34.7225 38.0259 36.1399C37.4607 37.6189 36.7467 38.8301 35.5673 39.7502C34.3901 40.6704 33.0407 41.0678 31.4703 41.259C29.9637 41.4375 28.0916 41.4375 25.7859 41.4375H15.7474C13.4418 41.4375 11.5676 41.4375 10.0631 41.2569C8.49056 41.0699 7.14331 40.6704 5.96394 39.7481C4.78669 38.8301 4.07269 37.6189 3.50744 36.1399C2.96769 34.7225 2.51506 32.9056 1.95619 30.668L1.89881 30.4449C1.01481 26.9067 0.307189 24.0805 0.079814 21.8386C-0.153936 19.5224 0.0798136 17.5079 1.39944 15.8143C2.00081 15.045 2.72119 14.4755 3.54569 14.0548L4.79944 9.44988L4.88019 9.16087C5.38381 7.31 5.74931 5.96275 6.52919 4.913C7.30211 3.87256 8.35222 3.07062 9.55944 2.59888C10.5709 2.20363 11.7014 2.13562 13.1549 2.125ZM13.1571 5.31887C11.7503 5.33375 11.1872 5.38687 10.7197 5.56962C10.0694 5.82395 9.50379 6.25623 9.08769 6.817C8.71369 7.32063 8.49269 8.024 7.87644 10.2914L7.12419 13.0454C9.32994 12.75 12.1774 12.75 15.7134 12.75H25.8178C29.3559 12.75 32.2034 12.75 34.4071 13.0454L33.6569 10.2893C33.0386 8.02187 32.8197 7.3185 32.4457 6.81487C32.0296 6.25411 31.464 5.82182 30.8137 5.5675C30.3462 5.38475 29.7809 5.33162 28.3742 5.31675C28.0722 5.9514 27.5965 6.48747 27.0022 6.86282C26.408 7.23816 25.7195 7.43742 25.0167 7.4375H16.5167C15.8138 7.43742 15.1254 7.23816 14.5312 6.86282C13.9369 6.48747 13.4612 5.9514 13.1592 5.31675M16.5167 3.1875C16.3758 3.1875 16.2407 3.24347 16.141 3.3431C16.0414 3.44273 15.9854 3.57785 15.9854 3.71875C15.9854 3.85965 16.0414 3.99477 16.141 4.0944C16.2407 4.19403 16.3758 4.25 16.5167 4.25H25.0167C25.1576 4.25 25.2927 4.19403 25.3923 4.0944C25.492 3.99477 25.5479 3.85965 25.5479 3.71875C25.5479 3.57785 25.492 3.44273 25.3923 3.3431C25.2927 3.24347 25.1576 3.1875 25.0167 3.1875H16.5167ZM7.37919 16.2265C5.44544 16.507 4.50831 17.017 3.91544 17.7778C3.32044 18.5364 3.05481 19.567 3.25244 21.5135C3.45431 23.5025 4.10244 26.1035 5.02469 29.801C5.61544 32.1555 6.02344 33.7875 6.49094 35.0073C6.93719 36.1845 7.37706 36.8071 7.92956 37.2385C8.47994 37.6678 9.18969 37.9419 10.4434 38.0928C11.7397 38.2479 13.4184 38.25 15.8494 38.25H25.6882C28.1171 38.25 29.8001 38.2479 31.0942 38.0928C32.3479 37.944 33.0577 37.6678 33.6081 37.2385C34.1606 36.8071 34.5983 36.1845 35.0488 35.0073C35.5121 33.7875 35.9222 32.1555 36.5108 29.801C37.4352 26.1035 38.0833 23.5025 38.2831 21.5135C38.4828 19.567 38.2151 18.5342 37.6222 17.7756C37.0293 17.017 36.0922 16.507 34.1563 16.2265C32.1801 15.9417 29.4983 15.9375 25.6882 15.9375H15.8494C12.0393 15.9375 9.35756 15.9417 7.38131 16.2265" fill="currentColor"/>
</svg>
