<svg width="28" height="31" viewBox="0 0 28 31" fill="none" xmlns="http://www.w3.org/2000/svg">
<g clip-path="url(#clip0_760_144)">
<path d="M1.16663 1.29175H5.83329L8.95996 18.5872C9.06664 19.1818 9.35885 19.716 9.78543 20.0962C10.212 20.4764 10.7458 20.6784 11.2933 20.6667H22.6333C23.1808 20.6784 23.7146 20.4764 24.1412 20.0962C24.5677 19.716 24.8599 19.1818 24.9666 18.5872L26.8333 7.75008H6.99996M11.6666 27.1251C11.6666 27.8384 11.1443 28.4167 10.5 28.4167C9.85563 28.4167 9.33329 27.8384 9.33329 27.1251C9.33329 26.4117 9.85563 25.8334 10.5 25.8334C11.1443 25.8334 11.6666 26.4117 11.6666 27.1251ZM24.5 27.1251C24.5 27.8384 23.9776 28.4167 23.3333 28.4167C22.689 28.4167 22.1666 27.8384 22.1666 27.1251C22.1666 26.4117 22.689 25.8334 23.3333 25.8334C23.9776 25.8334 24.5 26.4117 24.5 27.1251Z" stroke="#1E1E1E" stroke-width="3.5" stroke-linecap="round" stroke-linejoin="round"/>
</g>
<defs>
<clipPath id="clip0_760_144">
<rect width="28" height="31" fill="white"/>
</clipPath>
</defs>
</svg>
