<svg width="42" height="38" viewBox="0 0 42 38" fill="none" xmlns="http://www.w3.org/2000/svg">
<mask id="path-1-inside-1_776_81" fill="white">
<rect x="3" width="17.1812" height="17.6107" rx="3"/>
</mask>
<rect x="3" width="17.1812" height="17.6107" rx="3" fill="white" stroke="currentColor" stroke-width="7" mask="url(#path-1-inside-1_776_81)"/>
<mask id="path-2-inside-2_776_81" fill="white">
<rect x="22" width="17.1812" height="17.6107" rx="3"/>
</mask>
<rect x="22" width="17.1812" height="17.6107" rx="3" fill="white" stroke="currentColor" stroke-width="7" mask="url(#path-2-inside-2_776_81)"/>
<mask id="path-3-inside-3_776_81" fill="white">
<rect x="3" y="19" width="17.1812" height="17.6107" rx="3"/>
</mask>
<rect x="3" y="19" width="17.1812" height="17.6107" rx="3" fill="white" stroke="currentColor" stroke-width="7" mask="url(#path-3-inside-3_776_81)"/>
<path d="M28.3545 18.75C30.1959 18.75 31.7639 19.4072 33.043 20.7168C34.322 22.0264 34.961 23.631 34.959 25.5137C34.9589 26.2745 34.8404 26.9955 34.6025 27.6748C34.3921 28.2756 34.1129 28.8172 33.7656 29.2988L39.0918 34.7578C39.3214 34.9933 39.4316 35.2923 39.4316 35.6338C39.4316 35.9752 39.3214 36.2743 39.0918 36.5098C38.8616 36.7457 38.5668 36.8602 38.2285 36.8604C37.8902 36.8604 37.5955 36.7456 37.3652 36.5098L32.0469 31.0586C31.5789 31.4116 31.0523 31.6955 30.4688 31.9102C29.8042 32.1546 29.0989 32.2764 28.3545 32.2764C26.5119 32.2764 24.9442 31.6192 23.667 30.3096C22.3901 29.0001 21.7508 27.396 21.75 25.5137C21.7493 23.6311 22.3886 22.0264 23.667 20.7168C24.9455 19.4072 26.5132 18.75 28.3545 18.75ZM28.3545 21.2539C27.1989 21.2526 26.2247 21.6641 25.418 22.4941C24.6106 23.3249 24.2069 24.3266 24.2051 25.5137C24.2032 26.7001 24.6069 27.7018 25.418 28.5332C26.2287 29.3642 27.2025 29.7749 28.3535 29.7725H28.3545C29.5089 29.7724 30.4832 29.3615 31.292 28.5332C32.1008 27.7048 32.5045 26.7031 32.5039 25.5137C32.5033 24.3239 32.0997 23.322 31.292 22.4941C30.4847 21.6667 29.5103 21.2553 28.3545 21.2539Z" fill="currentColor" stroke="currentColor" stroke-width="0.5"/>
</svg>
