<svg width="20" height="23" viewBox="0 0 20 23" fill="none" xmlns="http://www.w3.org/2000/svg">
<path fill-rule="evenodd" clip-rule="evenodd" d="M11.5229 2.30489H8.44971C8.24595 2.30489 8.05053 2.38583 7.90645 2.52991C7.76236 2.674 7.68142 2.86942 7.68142 3.07318V3.84148H12.2912V3.07318C12.2912 2.86942 12.2102 2.674 12.0662 2.52991C11.9221 2.38583 11.7267 2.30489 11.5229 2.30489ZM14.5961 3.84148V3.07318C14.5961 2.25812 14.2723 1.47645 13.696 0.900114C13.1196 0.323781 12.338 0 11.5229 0H8.44971C7.63465 0 6.85298 0.323781 6.27664 0.900114C5.70031 1.47645 5.37653 2.25812 5.37653 3.07318V3.84148H1.15244C0.846796 3.84148 0.553668 3.96289 0.337543 4.17902C0.121418 4.39514 0 4.68827 0 4.99392C0 5.29957 0.121418 5.5927 0.337543 5.80882C0.553668 6.02495 0.846796 6.14636 1.15244 6.14636H1.63186L2.11896 17.8629C2.16852 19.0513 2.67557 20.1746 3.53409 20.9979C4.39262 21.8212 5.53616 22.2808 6.72566 22.2806H13.2485C14.4377 22.2804 15.5809 21.8207 16.4391 20.9974C17.2973 20.1741 17.8041 19.0511 17.8536 17.8629L18.3423 6.14636H18.8217C19.1273 6.14636 19.4205 6.02495 19.6366 5.80882C19.8527 5.5927 19.9741 5.29957 19.9741 4.99392C19.9741 4.68827 19.8527 4.39514 19.6366 4.17902C19.4205 3.96289 19.1273 3.84148 18.8217 3.84148H14.5961ZM16.0343 6.14636H3.93828L4.42231 17.7661C4.4469 18.3604 4.70033 18.9223 5.12962 19.3341C5.5589 19.7459 6.13078 19.9758 6.72566 19.9757H13.2485C13.8431 19.9754 14.4146 19.7453 14.8435 19.3336C15.2725 18.9218 15.5257 18.3602 15.5503 17.7661L16.0343 6.14636ZM6.52897 9.21954V16.9025C6.52897 17.2081 6.65039 17.5013 6.86652 17.7174C7.08264 17.9335 7.37577 18.0549 7.68142 18.0549C7.98706 18.0549 8.28019 17.9335 8.49632 17.7174C8.71244 17.5013 8.83386 17.2081 8.83386 16.9025V9.21954C8.83386 8.9139 8.71244 8.62077 8.49632 8.40464C8.28019 8.18852 7.98706 8.0671 7.68142 8.0671C7.37577 8.0671 7.08264 8.18852 6.86652 8.40464C6.65039 8.62077 6.52897 8.9139 6.52897 9.21954ZM12.2912 8.0671C12.5968 8.0671 12.89 8.18852 13.1061 8.40464C13.3222 8.62077 13.4436 8.9139 13.4436 9.21954V16.9025C13.4436 17.2081 13.3222 17.5013 13.1061 17.7174C12.89 17.9335 12.5968 18.0549 12.2912 18.0549C11.9855 18.0549 11.6924 17.9335 11.4763 17.7174C11.2602 17.5013 11.1387 17.2081 11.1387 16.9025V9.21954C11.1387 8.9139 11.2602 8.62077 11.4763 8.40464C11.6924 8.18852 11.9855 8.0671 12.2912 8.0671Z" fill="currentColor" fill-opacity="0.9"/>
</svg>
