<svg width="27" height="27" viewBox="0 0 27 27" fill="none" xmlns="http://www.w3.org/2000/svg">
<path d="M11.4309 1.9247C11.6914 1.63376 12.0103 1.40103 12.3668 1.24169C12.7234 1.08236 13.1095 1 13.5 1C13.8905 1 14.2766 1.08236 14.6332 1.24169C14.9897 1.40103 15.3086 1.63376 15.5691 1.9247L16.5412 3.01068C16.819 3.32105 17.1631 3.56495 17.5479 3.72433C17.9328 3.8837 18.3485 3.95447 18.7644 3.93139L20.2225 3.85085C20.6125 3.82935 21.0027 3.89035 21.3675 4.02988C21.7323 4.16941 22.0636 4.38432 22.3398 4.66059C22.6159 4.93685 22.8306 5.26826 22.97 5.63316C23.1093 5.99806 23.1701 6.38825 23.1485 6.77825L23.0679 8.23501C23.0451 8.65069 23.1159 9.0662 23.2753 9.45081C23.4347 9.83541 23.6784 10.1793 23.9886 10.4569L25.0745 11.429C25.3657 11.6896 25.5986 12.0086 25.7581 12.3652C25.9176 12.7219 26 13.1082 26 13.4989C26 13.8896 25.9176 14.2759 25.7581 14.6326C25.5986 14.9893 25.3657 15.3083 25.0745 15.5688L23.9886 16.5409C23.6782 16.8187 23.4344 17.1628 23.275 17.5477C23.1156 17.9325 23.0448 18.3483 23.0679 18.7642L23.1485 20.2224C23.17 20.6124 23.109 21.0025 22.9694 21.3674C22.8299 21.7322 22.615 22.0635 22.3387 22.3396C22.0625 22.6158 21.7311 22.8305 21.3662 22.9699C21.0013 23.1092 20.6111 23.1701 20.2212 23.1484L18.7644 23.0678C18.3488 23.045 17.9333 23.1158 17.5487 23.2752C17.1641 23.4346 16.8202 23.6784 16.5426 23.9885L15.5705 25.0745C15.31 25.3657 14.991 25.5986 14.6343 25.7581C14.2777 25.9176 13.8914 26 13.5007 26C13.11 26 12.7237 25.9176 12.3671 25.7581C12.0104 25.5986 11.6914 25.3657 11.4309 25.0745L10.4588 23.9885C10.181 23.6782 9.83692 23.4343 9.45208 23.2749C9.06723 23.1155 8.65146 23.0448 8.23556 23.0678L6.77746 23.1484C6.38746 23.1699 5.99731 23.1089 5.63248 22.9693C5.26766 22.8298 4.93637 22.6149 4.66025 22.3386C4.38412 22.0624 4.16937 21.731 4.03002 21.3661C3.89067 21.0012 3.82985 20.611 3.85153 20.221L3.93208 18.7642C3.95494 18.3485 3.88408 17.933 3.72471 17.5484C3.56535 17.1638 3.32156 16.82 3.01139 16.5423L1.92545 15.5702C1.63429 15.3097 1.40137 14.9907 1.2419 14.634C1.08243 14.2773 1 13.891 1 13.5003C1 13.1096 1.08243 12.7233 1.2419 12.3666C1.40137 12.01 1.63429 11.6909 1.92545 11.4304L3.01139 10.4583C3.32175 10.1805 3.56565 9.83642 3.72502 9.45156C3.88439 9.0667 3.95516 8.65092 3.93208 8.23501L3.85153 6.77686C3.83024 6.38696 3.89139 5.99695 4.03101 5.63229C4.17062 5.26762 4.38556 4.93649 4.66179 4.66051C4.93803 4.38453 5.26935 4.1699 5.63414 4.03063C5.99892 3.89135 6.38898 3.83057 6.77884 3.85223L8.23556 3.93278C8.65123 3.95565 9.06673 3.88478 9.45132 3.72541C9.83591 3.56604 10.1798 3.32225 10.4574 3.01206L11.4309 1.9247Z" stroke="black" stroke-width="2"/>
<path d="M10.0283 10.0283H10.0422V10.0422H10.0283V10.0283ZM16.9717 16.9719H16.9855V16.9858H16.9717V16.9719Z" stroke="black" stroke-width="3" stroke-linejoin="round"/>
<path d="M17.666 9.33398L9.33398 17.6663" stroke="black" stroke-width="2" stroke-linecap="round" stroke-linejoin="round"/>
</svg>
