<svg width="58" height="57" viewBox="0 0 58 57" fill="none" xmlns="http://www.w3.org/2000/svg">
<rect x="0.5" y="0.5" width="57" height="56" rx="7.5" fill="#D3EEFF" stroke="#009FD9"/>
<path d="M42.125 35.5625C42.125 36.4742 41.7167 37.3485 40.99 37.9932C40.2633 38.6378 39.2777 39 38.25 39C37.2223 39 36.2367 38.6378 35.51 37.9932C34.7833 37.3485 34.375 36.4742 34.375 35.5625C34.375 34.6508 34.7833 33.7765 35.51 33.1318C36.2367 32.4872 37.2223 32.125 38.25 32.125C39.2777 32.125 40.2633 32.4872 40.99 33.1318C41.7167 33.7765 42.125 34.6508 42.125 35.5625ZM26.625 35.5625C26.625 36.4742 26.2167 37.3485 25.49 37.9932C24.7633 38.6378 23.7777 39 22.75 39C21.7223 39 20.7367 38.6378 20.01 37.9932C19.2833 37.3485 18.875 36.4742 18.875 35.5625C18.875 34.6508 19.2833 33.7765 20.01 33.1318C20.7367 32.4872 21.7223 32.125 22.75 32.125C23.7777 32.125 24.7633 32.4872 25.49 33.1318C26.2167 33.7765 26.625 34.6508 26.625 35.5625Z" stroke="#009FD9" stroke-width="2"/>
<path d="M34.375 35.5625H26.625M42.125 35.5625H43.3076C43.6486 35.5625 43.8191 35.5625 43.9617 35.546C44.4749 35.4893 44.9521 35.2825 45.3178 34.9583C45.6836 34.634 45.9171 34.2109 45.9814 33.7558C46 33.6279 46 33.4766 46 33.1741V29.375C46 27.0046 44.9385 24.7313 43.0491 23.0552C41.1597 21.3791 38.5971 20.4375 35.925 20.4375M15 17H30.5C32.6917 17 33.7876 17 34.468 17.605C35.15 18.2073 35.15 19.1794 35.15 21.125V32.8125M15 29.0312V32.125C15 33.4106 15 34.0528 15.3115 34.5312C15.5156 34.8448 15.8091 35.1051 16.1625 35.2861C16.7019 35.5625 17.4257 35.5625 18.875 35.5625M15 21.125H24.3M15 25.25H21.2" stroke="#009FD9" stroke-width="2" stroke-linecap="round" stroke-linejoin="round"/>
</svg>
