<svg width="38" height="33" viewBox="0 0 38 33" fill="none" xmlns="http://www.w3.org/2000/svg">
<path d="M32.3 11C30.7167 11 29.3708 10.4653 28.2625 9.39583C27.1542 8.32639 26.6 7.02778 26.6 5.5C26.6 3.97222 27.1542 2.67361 28.2625 1.60417C29.3708 0.534722 30.7167 0 32.3 0C33.8833 0 35.2292 0.534722 36.3375 1.60417C37.4458 2.67361 38 3.97222 38 5.5C38 7.02778 37.4458 8.32639 36.3375 9.39583C35.2292 10.4653 33.8833 11 32.3 11ZM3.8 33C2.755 33 1.86073 32.6413 1.1172 31.9238C0.3724 31.2052 0 30.3417 0 29.3333V7.33333C0 6.325 0.3724 5.46211 1.1172 4.74467C1.86073 4.026 2.755 3.66667 3.8 3.66667H22.99C22.8633 4.27778 22.8 4.88889 22.8 5.5C22.8 6.11111 22.8633 6.72222 22.99 7.33333C23.2117 8.31111 23.5758 9.21983 24.0825 10.0595C24.5892 10.9004 25.2067 11.6417 25.935 12.2833L19 16.5L6.27 8.8C5.73167 8.46389 5.18573 8.44861 4.6322 8.75417C4.0774 9.05972 3.8 9.51806 3.8 10.1292C3.8 10.4042 3.86333 10.6566 3.99 10.8863C4.11667 11.1149 4.30667 11.3056 4.56 11.4583L18.0025 19.5708C18.3192 19.7542 18.6517 19.8458 19 19.8458C19.3483 19.8458 19.6808 19.7542 19.9975 19.5708L29.0225 14.1167C29.5608 14.3 30.0992 14.4375 30.6375 14.5292C31.1758 14.6208 31.73 14.6667 32.3 14.6667C33.3133 14.6667 34.3108 14.5139 35.2925 14.2083C36.2742 13.9028 37.1767 13.4444 38 12.8333V29.3333C38 30.3417 37.6282 31.2052 36.8847 31.9238C36.1399 32.6413 35.245 33 34.2 33H3.8Z" fill="#FF0000"/>
</svg>
