<svg width="28" height="28" viewBox="0 0 28 28" fill="none" xmlns="http://www.w3.org/2000/svg">
<path fill-rule="evenodd" clip-rule="evenodd" d="M14 25.6666C7.55654 25.6666 2.33337 20.4434 2.33337 13.9999C2.33337 7.55642 7.55654 2.33325 14 2.33325C20.4435 2.33325 25.6667 7.55642 25.6667 13.9999C25.6667 20.4434 20.4435 25.6666 14 25.6666ZM14 23.3333C16.4754 23.3333 18.8494 22.3499 20.5997 20.5996C22.35 18.8492 23.3334 16.4753 23.3334 13.9999C23.3334 11.5246 22.35 9.1506 20.5997 7.40026C18.8494 5.64992 16.4754 4.66659 14 4.66659C11.5247 4.66659 9.15072 5.64992 7.40038 7.40026C5.65004 9.1506 4.66671 11.5246 4.66671 13.9999C4.66671 16.4753 5.65004 18.8492 7.40038 20.5996C9.15072 22.3499 11.5247 23.3333 14 23.3333ZM12.8334 18.6666H15.1667V20.9999H12.8334V18.6666ZM12.8334 16.3426C12.8334 16.3426 15.1667 16.3333 15.1667 16.3426C15.1667 15.1736 18.6667 13.9999 18.6667 11.6666C18.6667 9.08825 16.5982 6.99992 14.0105 6.99992C13.3968 6.99854 12.7889 7.11823 12.2215 7.35213C11.6541 7.58603 11.1384 7.92956 10.7039 8.36304C10.2695 8.79651 9.92478 9.31143 9.68961 9.8783C9.45443 10.4452 9.33337 11.0529 9.33337 11.6666H11.6667C11.6667 10.3833 12.7167 9.33325 14 9.33325C15.2834 9.33325 16.3334 10.3833 16.3334 11.6666C16.3334 12.7166 12.8334 14.4281 12.8334 16.3426Z" fill="black"/>
</svg>
