<svg width="25" height="23" viewBox="0 0 25 23" fill="none" xmlns="http://www.w3.org/2000/svg">
<path d="M21.6412 11.7293L12.2662 21.0143L2.89125 11.7293C2.27288 11.1275 1.7858 10.4043 1.46068 9.60505C1.13556 8.80583 0.979448 7.94795 1.00217 7.08543C1.02489 6.2229 1.22595 5.37443 1.59269 4.59343C1.95944 3.81243 2.48391 3.11583 3.1331 2.54748C3.78229 1.97914 4.54213 1.55137 5.36476 1.29111C6.18739 1.03085 7.055 0.943739 7.91296 1.03526C8.77091 1.12678 9.60062 1.39496 10.3498 1.82289C11.0991 2.25083 11.7516 2.82926 12.2662 3.52176C12.7832 2.83429 13.4364 2.26091 14.1851 1.83751C14.9338 1.41412 15.7619 1.14982 16.6174 1.06116C17.473 0.972497 18.3376 1.06138 19.1572 1.32225C19.9768 1.58312 20.7338 2.01035 21.3807 2.57721C22.0276 3.14408 22.5505 3.83836 22.9168 4.61662C23.283 5.39488 23.4847 6.24036 23.5091 7.10014C23.5336 7.95993 23.3803 8.8155 23.0589 9.61332C22.7375 10.4111 22.2549 11.134 21.6412 11.7368" stroke="black" stroke-width="2" stroke-linecap="round" stroke-linejoin="round"/>
</svg>
