<svg width="46" height="46" viewBox="0 0 46 46" fill="none" xmlns="http://www.w3.org/2000/svg">
<path d="M44.5843 22.1276L25.1798 1.84124L23.8792 0.480764C23.5828 0.172827 23.1821 0 22.7643 0C22.3466 0 21.9458 0.172827 21.6495 0.480764L0.944319 22.1276C0.640652 22.444 0.400659 22.8208 0.238506 23.2358C0.0763534 23.6508 -0.00467349 24.0956 0.000208155 24.5439C0.0202956 26.3929 1.4917 27.8689 3.2594 27.8689H5.39369V44.9773H40.135V27.8689H42.3145C43.1732 27.8689 43.9817 27.517 44.5894 26.8814C44.8886 26.5694 45.1256 26.1985 45.2868 25.79C45.448 25.3816 45.5301 24.9437 45.5284 24.5018C45.5284 23.6089 45.192 22.7632 44.5843 22.1276ZM25.5766 41.1953H19.9521V30.4795H25.5766V41.1953ZM36.5192 24.0869V41.1953H28.7906V29.2189C28.7906 28.058 27.8917 27.1177 26.7818 27.1177H18.7468C17.637 27.1177 16.7381 28.058 16.7381 29.2189V41.1953H9.00944V24.0869H4.18845L22.7693 4.66725L23.9294 5.88065L41.3452 24.0869H36.5192Z" fill="currentColor"/>
</svg>
