<svg width="16" height="16" viewBox="0 0 16 16" fill="none" xmlns="http://www.w3.org/2000/svg">
<path d="M0 6H16V9.5H0V6Z" fill="#E6E7E8"/>
<path d="M13.5 2.25H2.5C0.84325 2.25 0 3.48125 0 5V6H16V5C16 3.48125 15.1567 2.25 13.5 2.25Z" fill="#FF9933"/>
<path d="M0 10.5C0 12.0187 0.84325 13.25 2.5 13.25H13.5C15.1567 13.25 16 12.0187 16 10.5V9.5H0V10.5Z" fill="#128807"/>
<path fill-rule="evenodd" clip-rule="evenodd" d="M8.07739 6.14551C8.39682 6.14551 8.70906 6.24026 8.97462 6.41777C9.24018 6.59529 9.44711 6.84759 9.56923 7.14274C9.69136 7.4379 9.72318 7.76265 9.66069 8.0759C9.59819 8.38915 9.44417 8.67682 9.21813 8.90252C8.99209 9.12821 8.70418 9.28178 8.39083 9.34379C8.07748 9.4058 7.75278 9.37347 7.45782 9.25089C7.16285 9.12831 6.91087 8.92099 6.73377 8.65516C6.55667 8.38932 6.4624 8.07693 6.46289 7.75751C6.46369 7.32979 6.63412 6.91985 6.9368 6.61765C7.23947 6.31544 7.64967 6.14564 8.07739 6.14551ZM7.00114 6.84426C7.02889 6.87576 7.03389 6.90951 7.01539 6.93776C7.0076 6.95081 6.99548 6.96072 6.98114 6.96576C6.97016 6.96984 6.95835 6.9712 6.94672 6.96972C6.9351 6.96824 6.924 6.96396 6.91439 6.95726C6.87095 7.01949 6.83274 7.08522 6.80014 7.15376C6.83789 7.17851 6.85039 7.20951 6.83789 7.24376C6.8312 7.26119 6.81798 7.27533 6.80104 7.28317C6.7841 7.29101 6.76476 7.29194 6.74714 7.28576C6.72914 7.32176 6.68939 7.47376 6.68889 7.50576C6.70533 7.50923 6.72011 7.51813 6.73089 7.53101C6.742 7.54407 6.74772 7.56088 6.74689 7.57801C6.74214 7.62501 6.71314 7.64501 6.66889 7.64676C6.66189 7.69201 6.66264 7.84351 6.66964 7.87326C6.71631 7.87826 6.74156 7.89867 6.74539 7.93451C6.75089 7.97301 6.73239 7.99801 6.68739 8.01551C6.70073 8.08984 6.72006 8.16276 6.74539 8.23426C6.76303 8.22901 6.78189 8.22962 6.79914 8.23601C6.81589 8.24326 6.82914 8.25576 6.83614 8.27301C6.84231 8.28634 6.84373 8.30042 6.84039 8.31526C6.83804 8.32621 6.83318 8.33647 6.8262 8.34524C6.81922 8.354 6.8103 8.36102 6.80014 8.36576C6.83364 8.43526 6.87064 8.50076 6.91439 8.56226C6.95339 8.54301 6.98739 8.54751 7.01039 8.57501C7.02042 8.58636 7.02617 8.60086 7.02664 8.61601C7.02736 8.62721 7.02536 8.63841 7.02084 8.64868C7.01631 8.65895 7.00939 8.66798 7.00064 8.67501C7.05048 8.73334 7.10423 8.78709 7.16189 8.83626C7.19464 8.80751 7.22864 8.80301 7.25789 8.82351C7.27123 8.83284 7.28014 8.84501 7.28464 8.86001C7.28764 8.87063 7.28825 8.88179 7.28643 8.89268C7.28462 8.90357 7.28042 8.91393 7.27414 8.92301C7.33731 8.96634 7.40289 9.00417 7.47089 9.03651C7.49756 8.99917 7.52739 8.98676 7.56039 8.99926C7.57466 9.00438 7.58703 9.01371 7.59589 9.02601C7.60806 9.04601 7.61039 9.06784 7.60289 9.09151C7.67489 9.11701 7.74739 9.13651 7.82239 9.14976C7.83714 9.10751 7.86264 9.08776 7.89664 9.09026C7.91239 9.09151 7.92664 9.09626 7.93914 9.10701C7.95664 9.12301 7.96473 9.14342 7.96339 9.16826C8.04006 9.17392 8.11573 9.17392 8.19039 9.16826C8.19589 9.12001 8.21514 9.09576 8.25389 9.09026C8.26861 9.08815 8.28362 9.09115 8.29639 9.09876C8.30572 9.1041 8.31374 9.11144 8.31988 9.12026C8.32602 9.12908 8.33013 9.13916 8.33189 9.14976C8.40739 9.13592 8.48056 9.11642 8.55139 9.09126C8.54514 9.04401 8.55664 9.01576 8.58839 9.00101C8.59997 8.99604 8.6126 8.99406 8.62514 8.99526C8.63831 8.99609 8.64973 9.00059 8.65939 9.00876C8.66864 9.01651 8.67639 9.02601 8.68539 9.03576C8.75354 9.0036 8.81893 8.96588 8.88089 8.92301C8.85539 8.88301 8.87039 8.84476 8.89114 8.82776C8.89838 8.82155 8.90678 8.81685 8.91585 8.81393C8.92492 8.81101 8.93448 8.80992 8.94398 8.81074C8.95347 8.81155 8.96271 8.81425 8.97115 8.81868C8.97959 8.8231 8.98707 8.82916 8.99314 8.83651C9.05089 8.78701 9.10514 8.73326 9.15364 8.67551C9.12539 8.64326 9.11989 8.60926 9.14064 8.58001C9.14911 8.56696 9.16197 8.55738 9.17689 8.55301C9.18755 8.5496 9.19885 8.54871 9.20991 8.5504C9.22097 8.5521 9.23149 8.55632 9.24064 8.56276C9.28431 8.49992 9.32239 8.43434 9.35489 8.36601C9.31823 8.34151 9.30531 8.31284 9.31614 8.28001C9.32019 8.26547 9.32899 8.25271 9.34114 8.24376C9.3508 8.23687 9.36196 8.23237 9.37369 8.23064C9.38542 8.2289 9.3974 8.22997 9.40864 8.23376C9.42489 8.19851 9.46539 8.05001 9.46764 8.01401C9.45038 8.01076 9.43481 8.00156 9.42364 7.98801C9.41784 7.98124 9.4135 7.97336 9.41087 7.96484C9.40825 7.95633 9.40741 7.94736 9.40839 7.93851C9.40941 7.92269 9.41596 7.90773 9.42689 7.89626C9.4345 7.88844 9.44372 7.88238 9.45391 7.8785C9.4641 7.87461 9.47501 7.87299 9.48589 7.87376C9.49216 7.79814 9.49216 7.72213 9.48589 7.64651C9.43814 7.64176 9.41539 7.62326 9.40914 7.58551C9.40639 7.57123 9.4085 7.55644 9.41514 7.54351C9.42029 7.53352 9.42769 7.52486 9.43676 7.51823C9.44583 7.51159 9.45631 7.50715 9.46739 7.50526C9.45429 7.43056 9.43481 7.35712 9.40914 7.28576C9.36289 7.29351 9.33439 7.28101 9.31914 7.24901C9.31519 7.24045 9.31297 7.23119 9.31263 7.22177C9.31229 7.21235 9.31383 7.20296 9.31716 7.19414C9.32048 7.18532 9.32553 7.17725 9.33201 7.1704C9.33849 7.16356 9.34627 7.15807 9.35489 7.15426C9.32252 7.08552 9.2843 7.01969 9.24064 6.95751C9.20039 6.97676 9.16764 6.97226 9.14464 6.94476C9.13448 6.93311 9.12881 6.91821 9.12864 6.90276C9.12813 6.89177 9.13022 6.88081 9.13474 6.87077C9.13926 6.86074 9.14607 6.85191 9.15464 6.84501C9.10522 6.78726 9.05148 6.73336 8.99389 6.68376C8.95939 6.71326 8.92589 6.71701 8.89739 6.69651C8.88439 6.68794 8.8749 6.67499 8.87064 6.66001C8.86759 6.64951 8.86694 6.63846 8.86876 6.62768C8.87058 6.6169 8.87481 6.60667 8.88114 6.59776C8.81883 6.5543 8.75302 6.51609 8.68439 6.48351C8.65873 6.52017 8.62956 6.53292 8.59689 6.52176C8.58245 6.51697 8.56981 6.5079 8.56064 6.49576C8.55405 6.486 8.54984 6.47483 8.54836 6.46315C8.54688 6.45146 8.54818 6.4396 8.55214 6.42851C8.4809 6.40247 8.40743 6.38297 8.33264 6.37026C8.31839 6.41076 8.29264 6.43176 8.25939 6.42976C8.24391 6.42894 8.22907 6.42335 8.21689 6.41376C8.20801 6.40621 8.20108 6.39664 8.19668 6.38585C8.19229 6.37505 8.19056 6.36336 8.19164 6.35176C8.11611 6.34535 8.04016 6.34543 7.96464 6.35201C7.95931 6.39717 7.93998 6.42259 7.90664 6.42826C7.8917 6.43149 7.87609 6.42955 7.86239 6.42276C7.8522 6.41765 7.84336 6.41021 7.83659 6.40105C7.82981 6.39188 7.82529 6.38125 7.82339 6.37001C7.74867 6.3836 7.67518 6.40325 7.60364 6.42876C7.61164 6.47301 7.59914 6.50201 7.56864 6.51776C7.55548 6.52476 7.54123 6.52701 7.52589 6.52451C7.51424 6.52294 7.50319 6.51836 7.49385 6.51121C7.48451 6.50406 7.4772 6.4946 7.47264 6.48376C7.42989 6.49976 7.29389 6.57851 7.27589 6.59826C7.29439 6.63526 7.29014 6.66801 7.26464 6.69151C7.25744 6.69787 7.24903 6.70272 7.23991 6.70577C7.23079 6.70882 7.22116 6.71001 7.21157 6.70927C7.20199 6.70852 7.19265 6.70585 7.18412 6.70143C7.17558 6.69701 7.16803 6.69091 7.16189 6.68351C7.10432 6.73295 7.05058 6.78669 7.00114 6.84426Z" fill="#010088"/>
<path fill-rule="evenodd" clip-rule="evenodd" d="M8.76981 8.95641C8.76681 8.95316 8.76381 8.95091 8.76156 8.94741C8.61622 8.72523 8.47047 8.50331 8.32431 8.28166L8.31431 8.26216C8.28031 8.18291 8.24706 8.10366 8.21231 8.02466C8.21123 8.02056 8.20963 8.01661 8.20756 8.01291C8.19356 8.01816 8.18081 8.02416 8.16581 8.02991L8.17081 8.04266C8.20206 8.11941 8.23206 8.19641 8.26381 8.27316C8.27231 8.29366 8.27581 8.31516 8.28031 8.33666C8.30481 8.45141 8.32781 8.56666 8.35256 8.68166L8.43706 9.09241C8.43761 9.09336 8.43783 9.09446 8.43769 9.09554C8.43756 9.09662 8.43707 9.09763 8.43631 9.09841L8.43281 9.08966C8.36431 8.87991 8.29406 8.67041 8.22531 8.46066C8.21156 8.41966 8.19931 8.37916 8.18431 8.33816C8.17731 8.31766 8.17506 8.29666 8.17181 8.27541C8.16306 8.21591 8.15556 8.15591 8.14581 8.09641C8.14431 8.08225 8.14248 8.06825 8.14031 8.05441L8.13756 8.03741C8.12256 8.03891 8.10881 8.04091 8.09381 8.04266C8.09381 8.04866 8.09414 8.05483 8.09481 8.06116C8.10356 8.13441 8.11106 8.20791 8.12156 8.28091C8.12706 8.32091 8.12431 8.36016 8.12206 8.40016L8.11681 8.50166C8.11231 8.57016 8.10881 8.63841 8.10406 8.70666L8.09656 8.84766L8.08306 9.08691C8.08106 9.10941 8.08056 9.13241 8.07831 9.15441L8.07231 9.07866L8.06456 8.91466L8.05556 8.76841C8.05289 8.71841 8.05006 8.6685 8.04706 8.61866L8.04156 8.52091L8.03306 8.36616C8.03051 8.33885 8.03118 8.31132 8.03506 8.28416C8.04006 8.247 8.04464 8.20958 8.04881 8.17191C8.05364 8.13475 8.05823 8.09783 8.06256 8.06116L8.06381 8.04266L8.02006 8.03691C8.01856 8.04691 8.01681 8.05683 8.01481 8.06666L7.98281 8.29566C7.97981 8.32541 7.96806 8.35291 7.95806 8.38066C7.88106 8.61533 7.80364 8.84983 7.72581 9.08416C7.72406 9.08841 7.72331 9.09241 7.72006 9.09641C7.71989 9.09358 7.72031 9.09091 7.72131 9.08841C7.75348 8.93025 7.78623 8.77216 7.81956 8.61416L7.88456 8.29966L7.89056 8.28241C7.92281 8.20316 7.95381 8.12316 7.98681 8.04391C7.98804 8.03926 7.98971 8.03474 7.99181 8.03041L7.95031 8.01316C7.94856 8.01766 7.94581 8.02141 7.94431 8.02591L7.84156 8.26466C7.83945 8.27066 7.83677 8.27643 7.83356 8.28191C7.68604 8.50538 7.53896 8.72913 7.39231 8.95316C7.39045 8.95665 7.3878 8.95965 7.38456 8.96191L7.38956 8.95116L7.75106 8.23441C7.75422 8.22793 7.75808 8.22181 7.76256 8.21616L7.91706 8.00891C7.92031 8.00541 7.92231 8.00216 7.92531 7.99841C7.91256 7.98916 7.90231 7.98066 7.88956 7.97091C7.88673 7.97408 7.88423 7.97716 7.88206 7.98016C7.82806 8.04816 7.77473 8.116 7.72206 8.18366C7.71639 8.19 7.71031 8.19616 7.70381 8.20216C7.50681 8.37841 7.30981 8.55366 7.11206 8.73016C7.10823 8.73366 7.10389 8.73666 7.09906 8.73916L7.10406 8.73241C7.26606 8.55125 7.42764 8.37008 7.58881 8.18891C7.59814 8.17891 7.60723 8.16866 7.61606 8.15816C7.63456 8.13683 7.65514 8.11766 7.67781 8.10066L7.85731 7.95941C7.86131 7.95641 7.86431 7.95316 7.86881 7.95016L7.84131 7.91491L7.83031 7.92266L7.62381 8.07691C7.61594 8.08246 7.60776 8.08756 7.59931 8.09216C7.36456 8.21066 7.12856 8.32916 6.89331 8.44766C6.88881 8.44966 6.88456 8.45216 6.87931 8.45216L6.88881 8.44541L7.32781 8.15791C7.40448 8.10775 7.48089 8.05741 7.55706 8.00691L7.57606 7.99691C7.65589 7.96308 7.73531 7.92916 7.81431 7.89516C7.81798 7.89383 7.82198 7.89208 7.82631 7.88991L7.80956 7.84866C7.80481 7.84991 7.80181 7.85116 7.79806 7.85241C7.71706 7.88466 7.63681 7.91741 7.55531 7.94941C7.53856 7.95566 7.52031 7.95866 7.50256 7.96241L6.95631 8.07591C6.88756 8.09066 6.81756 8.10516 6.74856 8.11941C6.74578 8.12003 6.74286 8.11968 6.74031 8.11841C6.75931 8.11225 6.77823 8.10591 6.79706 8.09941C7.03306 8.02175 7.26873 7.94391 7.50406 7.86591C7.52256 7.85966 7.54231 7.85791 7.56106 7.85491L7.78806 7.82266L7.80181 7.81966L7.79681 7.77566L7.76031 7.77966L7.60931 7.79791L7.52531 7.80816C7.51864 7.809 7.51206 7.80925 7.50556 7.80891L7.34656 7.79966L7.25256 7.79441L7.09056 7.78491L6.85431 7.77191C6.79731 7.76891 6.74181 7.76516 6.68506 7.76116C6.69406 7.76041 6.70406 7.75891 6.71381 7.75891L6.90756 7.74791L7.16356 7.73341L7.37556 7.72141L7.50856 7.71341C7.51423 7.71341 7.51981 7.71375 7.52531 7.71441L7.67781 7.73266L7.78581 7.74566H7.79681C7.79806 7.73141 7.80031 7.71791 7.80181 7.70241C7.79256 7.70041 7.78206 7.69891 7.77281 7.69716C7.70614 7.68783 7.63956 7.67825 7.57306 7.66841L7.53156 7.66291C7.52391 7.66186 7.51638 7.6601 7.50906 7.65766C7.31031 7.59241 7.11281 7.52666 6.91431 7.46141L6.74881 7.40641C6.74411 7.40499 6.73964 7.40289 6.73556 7.40016L6.77031 7.40716L7.19456 7.49541C7.30806 7.51916 7.42331 7.54266 7.53681 7.56666L7.55681 7.57291C7.63681 7.60441 7.71606 7.63691 7.79681 7.66891L7.80881 7.67366C7.81431 7.66016 7.82014 7.64641 7.82631 7.63241C7.82221 7.63003 7.81795 7.62794 7.81356 7.62616C7.73406 7.5925 7.65473 7.5585 7.57556 7.52416L7.55756 7.51491C7.33331 7.36816 7.11006 7.22066 6.88556 7.07366C6.88255 7.07208 6.88017 7.06953 6.87881 7.06641L6.88781 7.07141C7.11131 7.18391 7.33506 7.29633 7.55906 7.40866C7.59606 7.42716 7.63206 7.44941 7.66506 7.47466C7.71956 7.51691 7.77506 7.55741 7.83056 7.59891L7.84156 7.60666L7.86906 7.57191L7.85931 7.56341L7.65606 7.40366C7.64939 7.39816 7.64323 7.39241 7.63756 7.38641C7.46039 7.18808 7.28348 6.98975 7.10681 6.79141C7.10441 6.78923 7.10245 6.7866 7.10106 6.78366C7.10631 6.78416 7.10831 6.78766 7.11056 6.78991C7.21756 6.88491 7.32423 6.97991 7.43056 7.07491L7.70606 7.32041C7.71106 7.32525 7.71581 7.33025 7.72031 7.33541L7.87806 7.53591C7.88206 7.54041 7.88506 7.54516 7.88956 7.55116L7.92581 7.52341C7.92356 7.51991 7.92056 7.51716 7.91881 7.51391C7.86748 7.44508 7.81589 7.37633 7.76406 7.30766C7.75866 7.29962 7.75374 7.29128 7.74931 7.28266C7.62948 7.046 7.51006 6.80933 7.39106 6.57266C7.38881 6.56816 7.38656 6.56466 7.38606 6.55991L7.39206 6.56691L7.64756 6.95741L7.82831 7.23241C7.83456 7.24291 7.84156 7.25391 7.84556 7.26541C7.87906 7.34241 7.91206 7.4195 7.94456 7.49666C7.94656 7.5 7.94856 7.50391 7.95056 7.50841L7.99206 7.49116L7.98756 7.48066C7.95656 7.40266 7.92539 7.32483 7.89406 7.24716C7.88531 7.22741 7.88206 7.20691 7.87781 7.18641C7.85056 7.05616 7.82431 6.92566 7.79706 6.79516C7.77031 6.66966 7.74481 6.54516 7.71856 6.41916C7.71823 6.41866 7.71856 6.41725 7.71956 6.41491L7.74156 6.48166C7.82006 6.7175 7.89781 6.95358 7.97481 7.18991C7.98131 7.20841 7.98356 7.22866 7.98631 7.24791C7.99531 7.31358 8.00498 7.37941 8.01531 7.44541C8.01706 7.45791 8.01781 7.47041 8.02031 7.48416L8.06381 7.47866V7.46216L8.04481 7.30541C8.04106 7.27491 8.03831 7.24516 8.03406 7.21541C8.03163 7.1954 8.03163 7.17517 8.03406 7.15516L8.03981 7.05366L8.05206 6.84991C8.05431 6.81341 8.05506 6.77641 8.05731 6.73991C8.06048 6.69225 8.06331 6.64441 8.06581 6.59641C8.06798 6.56141 8.06981 6.52641 8.07131 6.49141C8.07348 6.45025 8.07639 6.40916 8.08006 6.36816C8.08089 6.37933 8.08156 6.39091 8.08206 6.40291C8.08539 6.45308 8.08839 6.50341 8.09106 6.55391L8.10406 6.78291L8.11181 6.91141L8.12356 7.13441L8.12606 7.16716C8.12931 7.19616 8.12356 7.22491 8.12106 7.25366L8.10506 7.38466C8.10256 7.40941 8.09881 7.43416 8.09581 7.45916C8.09531 7.46516 8.09531 7.47166 8.09356 7.47891C8.10906 7.48116 8.12306 7.48266 8.13856 7.48466C8.14081 7.47391 8.14181 7.46391 8.14356 7.45341C8.15556 7.37225 8.16723 7.29083 8.17856 7.20916C8.17956 7.20316 8.18206 7.19691 8.18356 7.19066C8.26506 6.94616 8.34506 6.70141 8.42606 6.45641C8.43006 6.44516 8.43306 6.43441 8.43931 6.42366L8.43656 6.44066C8.40006 6.61766 8.36206 6.79416 8.32581 6.97066C8.30948 7.0535 8.29256 7.13633 8.27506 7.21916C8.27382 7.22602 8.27163 7.23266 8.26856 7.23891L8.17206 7.48016C8.17039 7.4835 8.16881 7.48741 8.16731 7.49191C8.18231 7.49766 8.19456 7.50341 8.20906 7.50916L8.21481 7.49716L8.31556 7.26041C8.31956 7.25241 8.32256 7.24466 8.32781 7.23816L8.76406 6.57266C8.76681 6.56916 8.76906 6.56566 8.77331 6.56316C8.77181 6.56666 8.77006 6.57016 8.76806 6.57366L8.40931 7.28616C8.40564 7.293 8.40164 7.2995 8.39731 7.30566L8.24181 7.51291L8.23356 7.52416L8.26906 7.55191L8.27681 7.54241C8.32964 7.47491 8.38281 7.40733 8.43631 7.33966C8.4422 7.33205 8.44882 7.32501 8.45606 7.31866C8.65356 7.14216 8.85123 6.96591 9.04906 6.78991C9.05231 6.78716 9.05456 6.78441 9.05981 6.78291L9.05331 6.79091C8.97281 6.88208 8.89164 6.973 8.80981 7.06366C8.71264 7.17233 8.61581 7.281 8.51931 7.38966C8.51398 7.39516 8.50856 7.40008 8.50306 7.40441L8.29981 7.56416L8.28981 7.57216C8.29931 7.58416 8.30781 7.59566 8.31781 7.60766L8.32856 7.59966L8.53681 7.44366L8.55331 7.43316C8.79298 7.31283 9.03198 7.1925 9.27031 7.07216C9.27398 7.07016 9.27781 7.06908 9.28181 7.06891C9.27114 7.07608 9.26039 7.08308 9.24956 7.08991L8.60156 7.51516C8.59573 7.51883 8.58973 7.52208 8.58356 7.52491C8.50381 7.55941 8.42331 7.59341 8.34431 7.62766L8.33156 7.63266C8.33831 7.64666 8.34306 7.65991 8.34906 7.67391L8.36056 7.67016C8.44081 7.63841 8.52056 7.60516 8.60156 7.57441C8.62156 7.56641 8.64356 7.56291 8.66531 7.55841L9.03356 7.48191C9.14806 7.45841 9.26156 7.43441 9.37631 7.41066C9.38648 7.40833 9.39689 7.40616 9.40756 7.40416C9.41031 7.40416 9.41281 7.40366 9.41681 7.40516L9.38181 7.41666C9.13781 7.4975 8.89381 7.57783 8.64981 7.65766C8.63131 7.66416 8.61081 7.66591 8.59156 7.66891L8.42956 7.69216L8.37131 7.70041L8.35706 7.70291C8.35856 7.71766 8.36081 7.73141 8.36181 7.74741L8.39956 7.74341L8.53456 7.72741C8.56831 7.72316 8.60356 7.71841 8.63881 7.71516C8.65456 7.71391 8.67056 7.71541 8.68681 7.71616C8.72106 7.71766 8.75531 7.72066 8.79106 7.72216L8.99306 7.73416L9.08406 7.73916L9.29006 7.75091C9.33881 7.75391 9.38906 7.75616 9.43756 7.75916C9.44959 7.75981 9.4616 7.7609 9.47356 7.76241L9.43706 7.76541L9.28581 7.77366L9.09856 7.78466L8.95731 7.79216C8.89231 7.79616 8.82606 7.79991 8.76056 7.80416C8.72456 7.80566 8.68756 7.80916 8.65131 7.80941C8.63056 7.80991 8.60881 7.80591 8.58856 7.80366L8.45531 7.78766L8.37006 7.77741H8.36181C8.36048 7.79175 8.35889 7.80641 8.35706 7.82141L8.62156 7.85966C8.64756 7.86291 8.67031 7.87316 8.69481 7.88091L9.40581 8.11566C9.41052 8.11633 9.41494 8.11832 9.41856 8.12141C9.41273 8.12041 9.40681 8.11958 9.40081 8.11891L8.78331 7.99016L8.62031 7.95616C8.61506 7.95466 8.60806 7.95266 8.60231 7.94991C8.52214 7.91808 8.44164 7.88591 8.36081 7.85341L8.35006 7.84966L8.33181 7.89041L8.34506 7.89666C8.42473 7.9305 8.50414 7.9645 8.58331 7.99866C8.58948 8.00133 8.59581 8.00483 8.60231 8.00916L9.26781 8.44516C9.27106 8.44766 9.27531 8.45066 9.27806 8.45541C9.27456 8.45375 9.27131 8.452 9.26831 8.45016L8.92156 8.27616C8.80039 8.21483 8.67864 8.1535 8.55631 8.09216C8.54847 8.08838 8.54116 8.08359 8.53456 8.07791L8.32756 7.92341L8.31781 7.91641C8.30831 7.92791 8.29981 7.93916 8.28981 7.95116L8.29931 7.95866C8.36631 8.01216 8.43456 8.06566 8.50181 8.11891C8.50942 8.12445 8.51638 8.13082 8.52256 8.13791L9.05231 8.73066C9.05468 8.7335 9.05638 8.73683 9.05731 8.74041C9.05456 8.73741 9.05081 8.73541 9.04806 8.73316C8.84923 8.55566 8.65023 8.37833 8.45106 8.20116C8.44653 8.19716 8.4425 8.19263 8.43906 8.18766L8.27706 7.98116C8.27473 7.978 8.27214 7.97483 8.26931 7.97166C8.25781 7.98116 8.24656 7.98966 8.23506 7.99966C8.23623 8.00283 8.23798 8.00591 8.24031 8.00891L8.39756 8.21841C8.40185 8.22465 8.40585 8.23107 8.40956 8.23766L8.76681 8.94791C8.76883 8.95109 8.77012 8.95468 8.77056 8.95841H8.76981V8.95641Z" fill="#010088"/>
<path fill-rule="evenodd" clip-rule="evenodd" d="M8.76758 8.95654L8.77358 8.96404C8.77233 8.96454 8.77233 8.96529 8.77083 8.96554C8.77033 8.96204 8.76858 8.95979 8.76808 8.95654H8.76758Z" fill="#010088"/>
</svg>
