<svg width="16" height="21" viewBox="0 0 16 21" fill="none" xmlns="http://www.w3.org/2000/svg">
<path d="M7.72523 13.2632C9.55721 13.2632 11.025 11.7821 11.025 9.94737L11.036 3.31579C11.036 1.48105 9.55721 0 7.72523 0C5.89324 0 4.41441 1.48105 4.41441 3.31579V9.94737C4.41441 11.7821 5.89324 13.2632 7.72523 13.2632ZM13.5743 9.94737C13.5743 13.2632 10.7712 15.5842 7.72523 15.5842C4.67928 15.5842 1.87613 13.2632 1.87613 9.94737H0C0 13.7163 3.0018 16.8332 6.62162 17.3747V21H8.82883V17.3747C12.4486 16.8442 15.4505 13.7274 15.4505 9.94737H13.5743Z" fill="black"/>
</svg>
