<svg width="40" height="50" viewBox="0 0 40 50" fill="none" xmlns="http://www.w3.org/2000/svg">
<path d="M33.4688 25.5938C35.0352 25.5938 36.5375 26.216 37.6451 27.3237C38.7527 28.4313 39.375 29.9336 39.375 31.5V33.4688C39.375 41.2296 32.0513 49.2188 19.6875 49.2188C7.32375 49.2188 0 41.2296 0 33.4688V31.5C0 29.9336 0.622264 28.4313 1.7299 27.3237C2.83754 26.216 4.33982 25.5938 5.90625 25.5938H33.4688ZM19.6875 0C22.5593 0 25.3135 1.14082 27.3441 3.17148C29.3748 5.20215 30.5156 7.95633 30.5156 10.8281C30.5156 13.6999 29.3748 16.4541 27.3441 18.4848C25.3135 20.5154 22.5593 21.6562 19.6875 21.6562C16.8157 21.6562 14.0615 20.5154 12.0309 18.4848C10.0002 16.4541 8.85938 13.6999 8.85938 10.8281C8.85938 7.95633 10.0002 5.20215 12.0309 3.17148C14.0615 1.14082 16.8157 0 19.6875 0Z" fill="black"/>
</svg>
