<svg width="22" height="25" viewBox="0 0 22 25" fill="none" xmlns="http://www.w3.org/2000/svg">
<path d="M7.25012 18.5V19.75C7.25012 20.7446 7.64521 21.6984 8.34847 22.4017C9.05173 23.1049 10.0056 23.5 11.0001 23.5C11.9947 23.5 12.9485 23.1049 13.6518 22.4017C14.355 21.6984 14.7501 20.7446 14.7501 19.75V18.5M8.50012 3.5C8.50012 2.83696 8.76351 2.20107 9.23236 1.73223C9.7012 1.26339 10.3371 1 11.0001 1C11.6632 1 12.299 1.26339 12.7679 1.73223C13.2367 2.20107 13.5001 2.83696 13.5001 3.5C14.9356 4.17878 16.1594 5.23541 17.0402 6.55662C17.921 7.87784 18.4257 9.41384 18.5001 11V14.75C18.5942 15.5271 18.8694 16.2713 19.3036 16.9227C19.7379 17.574 20.3189 18.1143 21.0001 18.5H1.00012C1.6813 18.1143 2.26238 17.574 2.69661 16.9227C3.13083 16.2713 3.40605 15.5271 3.50012 14.75V11C3.57457 9.41384 4.07925 7.87784 4.96006 6.55662C5.84087 5.23541 7.06461 4.17878 8.50012 3.5Z" stroke="black" stroke-width="2" stroke-linecap="round" stroke-linejoin="round"/>
</svg>
