<svg width="60" height="60" viewBox="0 0 60 60" fill="none" xmlns="http://www.w3.org/2000/svg">
<path fill-rule="evenodd" clip-rule="evenodd" d="M30 6.875C28.5082 6.875 27.0774 7.46763 26.0225 8.52252C24.9677 9.57742 24.375 11.0082 24.375 12.5V13.15C25.7675 13.125 27.295 13.125 28.975 13.125H31.0275C32.7025 13.125 34.2325 13.125 35.6275 13.15V12.5C35.6275 11.7611 35.4819 11.0294 35.1991 10.3468C34.9163 9.66421 34.5017 9.044 33.9791 8.52164C33.4565 7.99928 32.8361 7.585 32.1534 7.30246C31.4706 7.01992 30.7389 6.87467 30 6.875ZM39.375 13.32V12.5C39.375 10.0136 38.3873 7.62903 36.6292 5.87087C34.871 4.11272 32.4864 3.125 30 3.125C27.5136 3.125 25.1291 4.11272 23.3709 5.87087C21.6127 7.62903 20.625 10.0136 20.625 12.5V13.32C20.2684 13.35 19.9234 13.3858 19.59 13.4275C17.065 13.74 14.985 14.395 13.215 15.8625C11.445 17.33 10.42 19.255 9.65002 21.68C8.90002 24.03 8.33502 27.0475 7.62502 30.845L7.57252 31.12C6.56752 36.4775 5.77752 40.7 5.63002 44.0275C5.48002 47.44 5.99002 50.265 7.91502 52.5825C9.84002 54.9025 12.5225 55.9225 15.9025 56.405C19.2025 56.875 23.495 56.875 28.9475 56.875H31.06C36.51 56.875 40.805 56.875 44.1025 56.405C47.4825 55.9225 50.1675 54.9025 52.0925 52.5825C54.0175 50.2625 54.5225 47.44 54.375 44.0275C54.23 40.7 53.4375 36.4775 52.4325 31.12L52.3825 30.845C51.67 27.0475 51.1025 24.0275 50.3575 21.68C49.5825 19.255 48.5575 17.33 46.7875 15.8625C45.02 14.395 42.9375 13.7375 40.4125 13.4275C40.0682 13.3851 39.7232 13.3493 39.3775 13.32M20.05 17.15C17.9125 17.4125 16.62 17.91 15.61 18.75C14.6025 19.585 13.875 20.7625 13.22 22.8175C12.5525 24.9175 12.025 27.7125 11.285 31.66C10.245 37.2025 9.50752 41.16 9.37502 44.1925C9.24502 47.1675 9.72502 48.8925 10.7975 50.19C11.8725 51.4825 13.48 52.27 16.43 52.69C19.43 53.12 23.46 53.125 29.1 53.125H30.9C36.5425 53.125 40.5675 53.12 43.57 52.6925C46.52 52.27 48.1275 51.4825 49.2025 50.19C50.2775 48.895 50.755 47.17 50.6275 44.19C50.4925 41.1625 49.755 37.2025 48.715 31.66C47.975 27.71 47.45 24.92 46.78 22.8175C46.125 20.7625 45.4 19.585 44.39 18.7475C43.38 17.91 42.09 17.4125 39.95 17.1475C37.76 16.8775 34.9175 16.875 30.9 16.875H29.1C25.0825 16.875 22.24 16.8775 20.05 17.15ZM36.245 29.85C36.6163 30.1801 36.8415 30.644 36.871 31.1399C36.9005 31.6358 36.732 32.1232 36.4025 32.495L29.735 39.995C29.5709 40.1798 29.3719 40.3303 29.1495 40.438C28.927 40.5456 28.6855 40.6082 28.4387 40.6221C28.192 40.636 27.9449 40.6011 27.7117 40.5192C27.4786 40.4373 27.2639 40.3101 27.08 40.145L23.745 37.145C23.375 36.8122 23.1524 36.346 23.1262 35.849C23.0999 35.352 23.2722 34.865 23.605 34.495C23.9379 34.125 24.4041 33.9024 24.901 33.8762C25.398 33.8499 25.885 34.0222 26.255 34.355L28.185 36.095L33.6 30.005C33.9301 29.6337 34.394 29.4086 34.8899 29.379C35.3859 29.3495 35.8732 29.5205 36.245 29.85Z" fill="black"/>
</svg>
