<svg width="23" height="23" viewBox="0 0 23 23" fill="none" xmlns="http://www.w3.org/2000/svg">
<path d="M11.5 4V1M15.5 5.5V2.5M7.5 5.5V2.5M1.199 19.605C1.322 20.8525 2.328 21.749 3.5805 21.8175C5.191 21.906 7.781 22 11.5 22C15.219 22 17.809 21.906 19.42 21.8175C20.672 21.749 21.678 20.8525 21.801 19.605C21.907 18.5305 22 17.0135 22 15C22 12.9865 21.907 11.4695 21.801 10.395C21.678 9.1475 20.672 8.251 19.4195 8.1825C17.809 8.094 15.219 8 11.5 8C7.781 8 5.191 8.094 3.58 8.1825C2.328 8.251 1.322 9.1475 1.199 10.395C1.093 11.47 1 12.9865 1 15C1 17.0135 1.093 18.5305 1.199 19.605Z" stroke="black" stroke-width="2" stroke-linecap="round" stroke-linejoin="round"/>
<path d="M13.5 12.643C13.5 12.643 12.7 12 11.5 12M11.5 12C10.5 12 9.5 12.643 9.5 13.5C9.5 15.643 13.5 14.357 13.5 16.5C13.5 17.357 12.5 18 11.5 18M11.5 12V11M11.5 18C10.3 18 9.5 17.357 9.5 17.357M11.5 18V19M18 15H17.5M5 15H5.5" stroke="black" stroke-width="2" stroke-linecap="round" stroke-linejoin="round"/>
</svg>
