<svg width="36" height="36" viewBox="0 0 36 36" fill="none" xmlns="http://www.w3.org/2000/svg">
<path d="M25.8167 16.0277C25.2749 16.0277 24.8204 15.836 24.4532 15.4525C24.0873 15.0704 23.9044 14.5964 23.9044 14.0305C23.9044 13.4646 24.0873 12.99 24.4532 12.6065C24.8204 12.2244 25.2749 12.0333 25.8167 12.0333C26.3586 12.0333 26.8124 12.2244 27.1783 12.6065C27.5455 12.99 27.7291 13.4646 27.7291 14.0305C27.7291 14.5964 27.5455 15.0704 27.1783 15.4525C26.8124 15.836 26.3586 16.0277 25.8167 16.0277ZM20.1275 10.1359C19.8088 9.80305 19.6494 9.42025 19.6494 8.98752C19.6494 8.55478 19.8247 8.20527 20.1753 7.93897C21.004 7.30652 21.8964 6.82386 22.8526 6.49098C23.8088 6.15811 24.7968 5.99168 25.8167 5.99168C26.8367 5.99168 27.8247 6.15811 28.7809 6.49098C29.737 6.82386 30.6295 7.30652 31.4582 7.93897C31.8088 8.20527 31.9841 8.55478 31.9841 8.98752C31.9841 9.42025 31.8247 9.80305 31.506 10.1359C31.251 10.4022 30.9482 10.5434 30.5976 10.5593C30.247 10.5766 29.9123 10.4688 29.5936 10.2358C29.0518 9.83634 28.4621 9.5281 27.8247 9.31107C27.1872 9.09537 26.5179 8.98752 25.8167 8.98752C25.1155 8.98752 24.4462 9.09537 23.8088 9.31107C23.1713 9.5281 22.5817 9.83634 22.0398 10.2358C21.7211 10.4688 21.3865 10.5766 21.0359 10.5593C20.6853 10.5434 20.3825 10.4022 20.1275 10.1359ZM16.1116 5.84189C15.7928 5.50902 15.6335 5.12621 15.6335 4.69348C15.6335 4.26075 15.7928 3.91124 16.1116 3.64494C17.4821 2.47989 18.996 1.58114 20.6534 0.948683C22.3108 0.316228 24.0319 0 25.8167 0C27.6016 0 29.3227 0.316228 30.9801 0.948683C32.6375 1.58114 34.1514 2.47989 35.5219 3.64494C35.8406 3.91124 36 4.26075 36 4.69348C36 5.12621 35.8406 5.50902 35.5219 5.84189C35.2669 6.10818 34.9641 6.24932 34.6135 6.2653C34.2629 6.28261 33.9442 6.15811 33.6574 5.89182C32.5418 4.95978 31.3147 4.24411 29.9761 3.7448C28.6374 3.24549 27.251 2.99584 25.8167 2.99584C24.3825 2.99584 22.996 3.24549 21.6574 3.7448C20.3187 4.24411 19.0916 4.95978 17.9761 5.89182C17.6892 6.15811 17.3705 6.28261 17.0199 6.2653C16.6693 6.24932 16.3665 6.10818 16.1116 5.84189ZM32.4143 36C28.3028 36 24.2951 35.0427 20.3914 33.128C16.4864 31.2146 13.0282 28.6848 10.0169 25.5385C7.0043 22.3936 4.58199 18.7819 2.74996 14.7036C0.916654 10.6266 0 6.44105 0 2.14702C0 1.54785 0.191235 1.04854 0.573705 0.649099C0.956175 0.249653 1.43426 0.0499308 2.00797 0.0499308H9.75299C10.1992 0.0499308 10.5976 0.199723 10.9482 0.499307C11.2988 0.79889 11.506 1.18169 11.5697 1.64771L12.8127 8.638C12.8765 9.10402 12.8688 9.5281 12.7898 9.91024C12.7095 10.2937 12.5259 10.6352 12.239 10.9348L7.6494 15.828C8.98805 18.2247 10.6614 20.4716 12.6693 22.5687C14.6773 24.6657 16.8924 26.4799 19.3147 28.0111L23.8088 23.3176C24.0956 23.018 24.4704 22.793 24.9332 22.6426C25.3947 22.4934 25.8486 22.4522 26.2948 22.5187L32.8924 23.9168C33.3386 24.0166 33.7052 24.241 33.992 24.5898C34.2789 24.94 34.4223 25.3481 34.4223 25.8141V33.9029C34.4223 34.5021 34.2311 35.0014 33.8486 35.4008C33.4661 35.8003 32.988 36 32.4143 36Z" fill="#FF0000"/>
</svg>
