<svg width="42" height="42" viewBox="0 0 42 42" fill="none" xmlns="http://www.w3.org/2000/svg">
<path d="M18.5 3.51429C17.856 3.51429 17.2183 3.65063 16.6232 3.91555C16.0282 4.18046 15.4876 4.56875 15.0322 5.05825C14.5768 5.54775 14.2155 6.12887 13.9691 6.76843C13.7226 7.40798 13.5958 8.09346 13.5958 8.78571C13.5958 9.47797 13.7226 10.1634 13.9691 10.803C14.2155 11.4426 14.5768 12.0237 15.0322 12.5132C15.4876 13.0027 16.0282 13.391 16.6232 13.6559C17.2183 13.9208 17.856 14.0571 18.5 14.0571C19.8007 14.0571 21.0482 13.5018 21.9679 12.5132C22.8876 11.5246 23.4043 10.1838 23.4043 8.78571C23.4043 7.38764 22.8876 6.04684 21.9679 5.05825C21.0482 4.06967 19.8007 3.51429 18.5 3.51429ZM10.3262 8.78571C10.3262 6.4556 11.1874 4.22092 12.7203 2.57328C14.2532 0.925635 16.3322 0 18.5 0C20.6679 0 22.7469 0.925635 24.2798 2.57328C25.8127 4.22092 26.6738 6.4556 26.6738 8.78571C26.6738 11.1158 25.8127 13.3505 24.2798 14.9982C22.7469 16.6458 20.6679 17.5714 18.5 17.5714C16.3322 17.5714 14.2532 16.6458 12.7203 14.9982C11.1874 13.3505 10.3262 11.1158 10.3262 8.78571ZM12.6454 22.4188C12.9331 22.6484 13.3037 22.9178 13.7462 23.1849C14.8643 23.8643 16.5034 24.5672 18.4979 24.5672C20.4923 24.5672 22.1336 23.8643 23.2517 23.1849C23.6942 22.9178 24.0648 22.6484 24.3525 22.4188C24.7623 22.5359 25.1684 22.6656 25.5709 22.8077L27.6634 23.5457C29.2328 24.101 30.4185 25.4481 30.8414 27.1139L31.7067 33.8238C31.8702 35.0983 31.249 36.0238 30.3858 36.244C28.1037 36.8297 24.2566 37.4857 18.5 37.4857C12.7435 37.4857 8.89418 36.8297 6.61206 36.244C5.75108 36.0238 5.12988 35.0983 5.29117 33.8238L6.15651 27.1139C6.37152 26.2833 6.77444 25.5227 7.32932 24.9002C7.88421 24.2776 8.57382 23.8123 9.33666 23.5457L11.4292 22.8077C11.8302 22.6671 12.2356 22.5375 12.6454 22.4188ZM14.193 19.2442L13.5587 18.5718L12.6825 18.7874C11.9181 18.9748 11.1596 19.2021 10.4069 19.4691L8.31439 20.2071C7.01447 20.6613 5.84246 21.4614 4.90729 22.5329C3.97213 23.6044 3.30416 24.9127 2.96545 26.3361L2.94366 26.4298L2.05435 33.3412C1.70342 36.0683 3.06136 38.9477 5.85571 39.6622C8.40593 40.3159 12.5081 41 18.4979 41C24.4898 41 28.5919 40.3159 31.1422 39.6646C33.9365 38.9477 35.2966 36.0683 34.9457 33.3435L34.0542 26.4321L34.0324 26.3384C33.6939 24.9143 33.0257 23.6054 32.0901 22.5334C31.1545 21.4614 29.9819 20.6612 28.6813 20.2071L26.591 19.4691C25.8397 19.2036 25.0812 18.9771 24.3154 18.7897L23.4392 18.5718L22.8071 19.2419L22.8049 19.2442C22.7206 19.3267 22.6334 19.4057 22.5433 19.4809C22.2623 19.7208 21.9634 19.9355 21.6497 20.1228C20.6914 20.7181 19.6068 21.0384 18.5 21.0529C17.3933 21.0384 16.3087 20.7181 15.3504 20.1228C14.9386 19.8728 14.5494 19.5784 14.193 19.2442Z" fill="currentColor"/>
</svg>
