<svg width="20" height="20" viewBox="0 0 20 20" fill="none" xmlns="http://www.w3.org/2000/svg">
<path d="M3.99023 2.64355C7.7214 -0.413924 13.2363 -0.200184 16.7197 3.2832C20.4292 6.99296 20.4294 13.0081 16.7197 16.7178C13.0101 20.4274 6.99491 20.4272 3.28516 16.7178H3.28418C2.14573 15.581 1.31513 14.173 0.870117 12.627C0.443002 11.143 0.384969 9.57824 0.699219 8.06836L1.66895 8.32324C1.30861 10.1138 1.53314 11.9779 2.31836 13.6367C3.17495 15.4461 4.6426 16.8952 6.46289 17.7285C8.2832 18.5618 10.3392 18.7255 12.2686 18.1914C14.198 17.6572 15.8772 16.4594 17.0098 14.8086C18.1424 13.1577 18.656 11.1594 18.46 9.16699C18.2638 7.17475 17.371 5.31535 15.9385 3.91699C14.5059 2.51859 12.6254 1.67136 10.6289 1.52344C8.75709 1.38478 6.89574 1.8695 5.33301 2.89648L5.02441 3.1084L5.01562 3.11523L4.7959 3.28125L4.33691 3.62695L4.74316 4.03418L5.12207 4.41211L2.18457 5.08984L2.8623 2.15234L3.31934 2.61035L3.63965 2.93066L3.99023 2.64355ZM10.502 4.5V6.5H13.002V7.5H8.00195C7.75248 7.49983 7.51153 7.59265 7.32715 7.76074C7.14248 7.9291 7.02746 8.16128 7.00488 8.41016C6.98243 8.65871 7.05404 8.9068 7.20508 9.10547C7.35643 9.30431 7.57735 9.43985 7.82324 9.48438L7.8457 9.48828L7.98047 9.5H12.002C12.5323 9.5 13.041 9.71099 13.416 10.0859C13.791 10.461 14.0019 10.9696 14.002 11.5C14.002 12.0304 13.7911 12.539 13.416 12.9141C13.0409 13.2891 12.5324 13.5 12.002 13.5H10.502V15.5H9.50195V13.5H7.00195V12.5H12.002V12.499C12.2516 12.4993 12.4923 12.4074 12.6768 12.2393C12.8614 12.071 12.9764 11.8396 12.999 11.5908C13.0216 11.342 12.9502 11.0934 12.7988 10.8945C12.6476 10.6958 12.4274 10.5612 12.1816 10.5166L12.1592 10.5117L12.0244 10.5H8.00195C7.4716 10.4999 6.96291 10.2891 6.58789 9.91406C6.21295 9.53901 6.00195 9.03034 6.00195 8.5C6.002 7.96964 6.21288 7.46097 6.58789 7.08594C6.96291 6.71092 7.4716 6.50006 8.00195 6.5H9.50195V4.5H10.502Z" fill="black" stroke="black"/>
</svg>
