<svg width="30" height="30" viewBox="0 0 30 30" fill="none" xmlns="http://www.w3.org/2000/svg">
<path d="M23.75 23.75L20 20M12.5 25H8.99625C7.59875 25 6.89875 25 6.365 24.7275C5.89462 24.4878 5.51218 24.1054 5.2725 23.635C5 23.1 5 22.4 5 21V9C5 7.6 5 6.9 5.2725 6.365C5.5125 5.89375 5.89375 5.5125 6.365 5.2725C6.9 5 7.6 5 9 5H21C22.4 5 23.1 5 23.6337 5.2725C24.105 5.5125 24.4875 5.89375 24.7275 6.365C25 6.89875 25 7.59875 25 8.99625V12.5M16.875 21.25C15.7147 21.25 14.6019 20.7891 13.7814 19.9686C12.9609 19.1481 12.5 18.0353 12.5 16.875C12.5 15.7147 12.9609 14.6019 13.7814 13.7814C14.6019 12.9609 15.7147 12.5 16.875 12.5C18.0353 12.5 19.1481 12.9609 19.9686 13.7814C20.7891 14.6019 21.25 15.7147 21.25 16.875C21.25 18.0353 20.7891 19.1481 19.9686 19.9686C19.1481 20.7891 18.0353 21.25 16.875 21.25Z" stroke="black" stroke-width="2" stroke-linecap="round" stroke-linejoin="round"/>
</svg>
