<svg width="48" height="48" viewBox="0 0 48 48" fill="none" xmlns="http://www.w3.org/2000/svg">
<path d="M38 38C35.3638 38 33.25 40.1138 33.25 42.75C33.25 44.0098 33.7504 45.218 34.6412 46.1088C35.532 46.9996 36.7402 47.5 38 47.5C39.2598 47.5 40.468 46.9996 41.3588 46.1088C42.2496 45.218 42.75 44.0098 42.75 42.75C42.75 41.4902 42.2496 40.282 41.3588 39.3912C40.468 38.5004 39.2598 38 38 38ZM0 0V4.75H4.75L13.3 22.7763L10.07 28.595C9.71375 29.26 9.5 30.0438 9.5 30.875C9.5 32.1348 10.0004 33.343 10.8912 34.2338C11.782 35.1246 12.9902 35.625 14.25 35.625H42.75V30.875H15.2475C15.09 30.875 14.939 30.8124 14.8277 30.7011C14.7163 30.5897 14.6538 30.4387 14.6538 30.2812C14.6538 30.1625 14.6775 30.0675 14.725 29.9963L16.8625 26.125H34.5563C36.3375 26.125 37.905 25.1275 38.7125 23.6788L47.215 8.3125C47.3812 7.9325 47.5 7.52875 47.5 7.125C47.5 6.49511 47.2498 5.89102 46.8044 5.44562C46.359 5.00022 45.7549 4.75 45.125 4.75H9.99875L7.76625 0M14.25 38C11.6137 38 9.5 40.1138 9.5 42.75C9.5 44.0098 10.0004 45.218 10.8912 46.1088C11.782 46.9996 12.9902 47.5 14.25 47.5C15.5098 47.5 16.718 46.9996 17.6088 46.1088C18.4996 45.218 19 44.0098 19 42.75C19 41.4902 18.4996 40.282 17.6088 39.3912C16.718 38.5004 15.5098 38 14.25 38Z" fill="#FFFFFF"/>
</svg>
