<svg width="41" height="43" viewBox="0 0 41 43" fill="none" xmlns="http://www.w3.org/2000/svg">
<path d="M33.4833 37.625L22.7208 26.3375C21.8667 27.0542 20.8844 27.6215 19.774 28.0396C18.6635 28.4576 17.4819 28.6667 16.2292 28.6667C13.1257 28.6667 10.4991 27.5394 8.34948 25.2849C6.19983 23.0304 5.125 20.2757 5.125 17.0208C5.125 13.766 6.19983 11.0113 8.34948 8.75677C10.4991 6.50226 13.1257 5.375 16.2292 5.375C19.3326 5.375 21.9592 6.50226 24.1089 8.75677C26.2585 11.0113 27.3333 13.766 27.3333 17.0208C27.3333 18.3347 27.134 19.574 26.7354 20.7385C26.3368 21.9031 25.7958 22.9333 25.1125 23.8292L35.875 35.1167L33.4833 37.625ZM16.2292 25.0833C18.3646 25.0833 20.1797 24.2995 21.6745 22.7318C23.1693 21.1641 23.9167 19.2604 23.9167 17.0208C23.9167 14.7812 23.1693 12.8776 21.6745 11.3099C20.1797 9.74219 18.3646 8.95833 16.2292 8.95833C14.0938 8.95833 12.2786 9.74219 10.7839 11.3099C9.28906 12.8776 8.54167 14.7812 8.54167 17.0208C8.54167 19.2604 9.28906 21.1641 10.7839 22.7318C12.2786 24.2995 14.0938 25.0833 16.2292 25.0833Z" fill="#1D1B20"/>
</svg>
