<svg width="49" height="50" viewBox="0 0 49 50" fill="none" xmlns="http://www.w3.org/2000/svg">
<path fill-rule="evenodd" clip-rule="evenodd" d="M44.5 20.45C43.7251 12.5 39.025 0 24.5001 0C9.97506 0 5.27502 12.5 4.50006 20.45C1.78131 21.4819 -0.0120098 24.0921 6.05568e-05 27V30.5C6.05568e-05 34.3661 3.13412 37.5 7.00002 37.5C10.866 37.5 14.0001 34.3659 14.0001 30.5V27C13.9874 24.1548 12.2601 21.5982 9.62502 20.525C10.1251 15.925 12.5751 5.00004 24.5001 5.00004C36.4251 5.00004 38.8501 15.925 39.3501 20.525C36.7204 21.6006 35.0017 24.1589 35.0001 27V30.5C35.0055 31.8172 35.381 33.1063 36.0839 34.2203C36.7867 35.3342 37.7886 36.2281 38.9751 36.8C37.9251 38.775 35.2501 41.45 28.675 42.25C27.3608 40.2543 24.8179 39.4675 22.6061 40.3723C20.3944 41.277 19.132 43.6204 19.5932 45.965C20.0545 48.3097 22.1104 50 24.5001 50C25.426 49.9949 26.3324 49.7327 27.1181 49.2427C27.9038 48.7528 28.538 48.0542 28.9501 47.225C39.6751 46 43.1001 40.475 44.1751 37.225C47.0833 36.2829 49.0393 33.5569 49 30.5V27C49.0121 24.0921 47.2188 21.4819 44.5 20.45ZM9.00006 30.5C9.00006 31.6045 8.10463 32.5 7.00002 32.5C5.89541 32.5 5.0001 31.6046 5.0001 30.5V27C4.99808 26.7361 5.04832 26.4744 5.14792 26.2299C5.24752 25.9855 5.39452 25.7632 5.58044 25.5759C5.76635 25.3885 5.98751 25.2398 6.23116 25.1384C6.47482 25.0369 6.73614 24.9847 7.00008 24.9847C7.26402 24.9847 7.52534 25.0369 7.769 25.1384C8.01265 25.2398 8.23381 25.3885 8.41972 25.5759C8.60564 25.7632 8.75264 25.9855 8.85224 26.2299C8.95184 26.4744 9.00208 26.7361 9.00006 27V30.5ZM40 27C40 25.8954 40.8954 25 42.0001 25C43.1047 25 44.0001 25.8954 44.0001 27V30.5C44.0001 31.6045 43.1047 32.5 42.0001 32.5C40.8954 32.5 40 31.6046 40 30.5V27Z" fill="black"/>
</svg>
