<svg width="23" height="25" viewBox="0 0 23 25" fill="none" xmlns="http://www.w3.org/2000/svg">
<path d="M16.3333 5.43719e-09C17.2261 -4.97253e-05 18.0851 0.341046 18.7346 0.953498C19.3842 1.56595 19.7751 2.40346 19.8275 3.29467L19.8333 3.5V15.1667H20.7083C21.4632 15.1667 22.085 15.7407 22.1597 16.4757L22.1667 16.625V18.6667C22.1667 19.5594 21.8256 20.4184 21.2132 21.068C20.6007 21.7175 19.7632 22.1085 18.872 22.1608L18.6667 22.1667H7C6.10725 22.1667 5.24823 21.8256 4.5987 21.2132C3.94916 20.6007 3.55821 19.7632 3.50583 18.872L3.5 18.6667V7H1.45833C1.0973 7.00016 0.749037 6.8664 0.48094 6.6246C0.212843 6.38279 0.0439699 6.05014 0.00700005 5.691L5.43719e-09 5.54167V3.5C-4.97253e-05 2.60725 0.341046 1.74823 0.953498 1.0987C1.56595 0.449159 2.40346 0.0582079 3.29467 0.00583347L3.5 5.43719e-09H16.3333ZM16.3333 2.33333H5.83333V18.6667C5.83333 18.9761 5.95625 19.2728 6.17504 19.4916C6.39383 19.7104 6.69058 19.8333 7 19.8333C7.30942 19.8333 7.60616 19.7104 7.82496 19.4916C8.04375 19.2728 8.16667 18.9761 8.16667 18.6667V16.625C8.16667 15.82 8.82 15.1667 9.625 15.1667H17.5V3.5C17.5 3.19058 17.3771 2.89383 17.1583 2.67504C16.9395 2.45625 16.6428 2.33333 16.3333 2.33333ZM19.8333 17.5H10.5V18.6667C10.5 19.075 10.43 19.4682 10.3017 19.8333H18.6667C18.9761 19.8333 19.2728 19.7104 19.4916 19.4916C19.7104 19.2728 19.8333 18.9761 19.8333 18.6667V17.5ZM11.6667 10.5C11.9761 10.5 12.2728 10.6229 12.4916 10.8417C12.7104 11.0605 12.8333 11.3572 12.8333 11.6667C12.8333 11.9761 12.7104 12.2728 12.4916 12.4916C12.2728 12.7104 11.9761 12.8333 11.6667 12.8333H9.33333C9.02391 12.8333 8.72717 12.7104 8.50838 12.4916C8.28958 12.2728 8.16667 11.9761 8.16667 11.6667C8.16667 11.3572 8.28958 11.0605 8.50838 10.8417C8.72717 10.6229 9.02391 10.5 9.33333 10.5H11.6667ZM14 5.83333C14.3094 5.83333 14.6062 5.95625 14.825 6.17504C15.0437 6.39383 15.1667 6.69058 15.1667 7C15.1667 7.30942 15.0437 7.60616 14.825 7.82496C14.6062 8.04375 14.3094 8.16667 14 8.16667H9.33333C9.02391 8.16667 8.72717 8.04375 8.50838 7.82496C8.28958 7.60616 8.16667 7.30942 8.16667 7C8.16667 6.69058 8.28958 6.39383 8.50838 6.17504C8.72717 5.95625 9.02391 5.83333 9.33333 5.83333H14ZM3.5 2.33333C3.21424 2.33337 2.93844 2.43828 2.7249 2.62817C2.51136 2.81805 2.37493 3.07971 2.3415 3.3635L2.33333 3.5V4.66667H3.5V2.33333Z" fill="black"/>
</svg>
