<svg width="42" height="47" viewBox="0 0 42 47" fill="none" xmlns="http://www.w3.org/2000/svg">
<path d="M21 0C23.7848 0 26.4555 1.23361 28.4246 3.42945C30.3938 5.62529 31.5 8.60348 31.5 11.7089C31.5 14.8143 30.3938 17.7925 28.4246 19.9883C26.4555 22.1841 23.7848 23.4177 21 23.4177C18.2152 23.4177 15.5445 22.1841 13.5754 19.9883C11.6062 17.7925 10.5 14.8143 10.5 11.7089C10.5 8.60348 11.6062 5.62529 13.5754 3.42945C15.5445 1.23361 18.2152 0 21 0ZM21 29.2722C32.6025 29.2722 42 34.5119 42 40.981V46.8355H0V40.981C0 34.5119 9.3975 29.2722 21 29.2722Z" fill="#FF0000"/>
</svg>
